# xmcd CD database file
#
# Track frame offsets:
#	150
#	18887
#	37487
#	52462
#	67662
#	87250
#	105725
#	122350
#	139750
#	157100
#
# Disc length: 2310 seconds
#
# Revision: 1
# Processed by: cddbd v1.4PL0 Copyright (c) Steve Scherf et al.
# Submitted via: CDex 1.40Release
#
DISCID=8809040a
DTITLE=Alabama - Christmas
DYEAR=1900
DGENRE=Country
TTITLE0=Santa Claus (I Still Believe In You)
TTITLE1=Joseph and Mary's Boy
TTITLE2=Happy Holidays
TTITLE3=Christmas Memories
TTITLE4=Tonight Is Christmas
TTITLE5=Thistlehair The Christmas Bear
TTITLE6=Tenesse Christmas
TTITLE7=A Candle In The Window
TTITLE8=Homecoming Christmas
TTITLE9=Christmas In Dixie
EXTD=ID3G: 2
EXTT0=
EXTT1=
EXTT2=
EXTT3=
EXTT4=
EXTT5=
EXTT6=
EXTT7=
EXTT8=
EXTT9=
PLAYORDER=
